inDegrees=no
nColumns=32
nRows=8
DataType=double
version=3
OpenSimVersion=4.5
endheader
time	pelvis_tilt	pelvis_list	pelvis_rotation	pelvis_tz	pelvis_ty	pelvis_tx	hip_flexion_r	hip_adduction_r	hip_rotation_r	knee_angle_r	ankle_angle_r	subtalar_angle_r	mtp_angle_r	hip_flexion_l	hip_adduction_l	hip_rotation_l	knee_angle_l	ankle_angle_l	subtalar_angle_l	mtp_angle_l	lumbar_extension	lumbar_bending	lumbar_rotation	arm_flex_r	arm_add_r	arm_rot_r	elbow_flex_r	arm_flex_l	arm_add_l	arm_rot_l	elbow_flex_l
0.8700000000000001	-0.1026566217943224	-0.03039129716070542	-0.04742246507580697	0.00370434	0.94816648	0.97055681	0.1767697807076251	0.09294086589369323	-0.2182779977213578	-0.1903786223470335	0.2056581720353331	-0.06264198987257862	0	0.5394174854178075	-0.1799636456232463	-0.2841857935850614	-0.9885205898467243	0.05503068894071109	-0.3149084598086368	0	-0.05556740630909908	0.003181364867518389	0.1231612267076106	-0.06488141345823213	-0.2562991224623624	-0.07747328211123247	0.7676925283817249	-0.08333281247896826	-0.1971918280197283	-0.07782081468988344	0.8375319852144281
0.8799999999999999	-0.1040535433372421	-0.0290564460001126	-0.05280272772805567	0.004959350000000001	0.94804036	0.9804843499999999	0.1606838805273237	0.09414541046201072	-0.2148232254557181	-0.1799727668884501	0.2139190977792953	-0.05923041520405754	0	0.5559189664699001	-0.1772571017675231	-0.2863136225636716	-0.9546573877664211	0.06611564590259313	-0.3129873795661581	0	-0.05354162324119443	-0.00148442713796363	0.1323005229079605	-0.05652600117362062	-0.2607123162813288	-0.07774237610264033	0.7765995697787875	-0.09213761440831128	-0.1957462351557532	-0.07973066600755363	0.8305895096362893
0.8900000000000001	-0.1034533361197577	-0.02565958628156904	-0.06187880651444005	0.006449869999999996	0.94807519	0.9904916300000001	0.1441569914955794	0.09247462526956662	-0.20863662405135	-0.1730328230849242	0.2236416873789848	-0.04981884222987583	0	0.5650171760488617	-0.1750317560076162	-0.296453497174634	-0.9140531900441649	0.07589140975047148	-0.3057296484813571	0	-0.05446350370863687	-0.008652232751049467	0.1439701520792912	-0.04859012659674747	-0.2649964726727076	-0.07649085983722974	0.7902108112459174	-0.09989494250083711	-0.193134972140022	-0.08399039983217629	0.8176874474550565
0.8999999999999999	-0.09796603444153325	-0.02066037257721209	-0.0717603288727192	0.007483790000000018	0.94840525	1.00032247	0.1243582443689959	0.0873202409063594	-0.2065581271531132	-0.1690065191937742	0.2321674579357579	-0.03552692811405463	0	0.5668961226469339	-0.1704670288632673	-0.3085191855355394	-0.869677575442055	0.08822289063797169	-0.2921236311337442	0	-0.06225956484605469	-0.01699491966555175	0.1596587873965707	-0.04230917478741165	-0.2725651498717147	-0.07660024607917047	0.8061921318210382	-0.1008236459839244	-0.1855392535077163	-0.0927298360394395	0.8020798763983469
0.9100000000000001	-0.09909418357752786	-0.02131094514751858	-0.0770109355853579	0.008573710000000012	0.94770386	1.01046352	0.1087166064051495	0.08965288008390097	-0.2034736010064772	-0.1606211989471005	0.2427311227491811	-0.03274627740375891	0	0.5772807671191179	-0.1701387095671539	-0.3144515387191171	-0.8248305899950152	0.08984675439880516	-0.2938203463338194	0	-0.06057906480192813	-0.01891769479726709	0.1657094894368639	-0.03334663715612331	-0.2766575193619746	-0.07745828624229932	0.8165951190055287	-0.1114816980287625	-0.1837945644424916	-0.0950141557766396	0.7926240116801384
0.9199999999999999	-0.0930354979747285	-0.01795020221646345	-0.08648317175375417	0.009611599999999998	0.94772081	1.02052032	0.08820098535959575	0.08585384947728711	-0.1988714437055228	-0.1570069297677674	0.252008716395998	-0.02273527458863824	0	0.5745639507790162	-0.1661683249780402	-0.3274519875537458	-0.7724922496236221	0.08791785001982268	-0.2957256287285737	0	-0.06797067607939231	-0.02589861195031278	0.1799510274163531	-0.02786713827037527	-0.2825307627816434	-0.07904547365423141	0.8325728316360198	-0.1133293630906512	-0.1769680947910805	-0.1031452642799042	0.7751068420294343
0.9299999999999997	-0.09420046995612857	-0.02118417046240418	-0.09077656513976812	0.01046295999999999	0.94661366	1.03091406	0.07219818938069392	0.09031822525110123	-0.1964082165498861	-0.1488788359717197	0.2626180299469413	-0.01930178556602913	0	0.5826148465678531	-0.1671173193099453	-0.3327904676756571	-0.7237470904908747	0.09093202578403524	-0.2998099126320079	0	-0.06607791397856011	-0.02450560184244304	0.1842240243470276	-0.0193679132988604	-0.2860241410322054	-0.08122953382521533	0.8426887013375161	-0.1241288323579943	-0.1751215781558396	-0.1056673034462796	0.7654427679090433
0.9399999999999999	-0.09314455740900413	-0.02273616754098889	-0.09612165870281868	0.01141633	0.9456435	1.04134694	0.05376317219484993	0.09264496783376494	-0.1919236483638239	-0.1402646290581493	0.2695874909333098	-0.01168861189587421	0	0.5846787303478618	-0.1663351063724327	-0.3418788037525073	-0.6700100884609609	0.0885735360113436	-0.3017324516206755	0	-0.06612137861105423	-0.02563394655734893	0.1919539640347994	-0.01375451938515051	-0.2904664211122222	-0.08283404764423072	0.8560287017091923	-0.1316406058892668	-0.172344590368045	-0.1087486527446112	0.7523320158364849
